<?xml version="1.0" standalone="no"?>
<!DOCTYPE svg PUBLIC "-//W3C//DTD SVG 20010904//EN"
 "http://www.w3.org/TR/2001/REC-SVG-20010904/DTD/svg10.dtd">
<svg version="1.0" xmlns="http://www.w3.org/2000/svg"
 width="540.000000pt" height="540.000000pt" viewBox="0 0 540.000000 540.000000"
 preserveAspectRatio="xMidYMid meet">
<metadata>
Created by potrace 1.14, written by Peter Selinger 2001-2017
</metadata>
<g transform="translate(0.000000,540.000000) scale(0.100000,-0.100000)"
fill="#000000" stroke="none">
<path d="M1483 3590 c-126 -33 -198 -97 -233 -205 -24 -77 -22 -195 4 -245 41
-76 147 -148 272 -184 l51 -14 1 109 0 109 -31 15 c-69 34 -98 74 -92 128 9
75 66 111 180 112 67 0 89 -4 130 -26 28 -14 56 -37 63 -51 14 -29 66 -77 85
-79 86 -6 150 -2 157 10 12 22 -27 148 -62 198 -35 51 -100 97 -173 120 -78
24 -264 26 -352 3z"/>
<path d="M2610 3594 c-127 -27 -245 -108 -305 -210 -13 -23 -36 -77 -51 -120
-24 -70 -27 -95 -28 -214 -1 -74 2 -151 5 -170 43 -241 180 -387 399 -427 65
-11 214 -6 277 10 93 24 151 55 209 112 59 58 87 109 109 192 24 93 30 88 -96
88 l-110 0 -30 -63 c-49 -101 -126 -143 -252 -138 -92 4 -158 38 -210 107 -45
60 -67 136 -69 245 -5 190 49 306 167 365 52 25 75 31 130 30 126 -1 174 -26
240 -128 33 -51 64 -63 167 -63 l79 0 -7 48 c-32 220 -205 351 -465 350 -52 0
-123 -7 -159 -14z"/>
<path d="M345 3577 c-165 -62 -288 -210 -320 -387 -3 -14 -7 -36 -10 -50 -10
-46 -7 -194 4 -256 40 -217 165 -361 365 -419 31 -9 61 -14 64 -10 4 4 7 49 7
102 l1 95 -46 23 c-81 41 -132 116 -155 225 -15 70 -13 207 3 271 24 95 93
182 167 213 l30 13 0 99 c0 98 0 99 -25 101 -14 1 -52 -8 -85 -20z"/>
<path d="M647 3594 c-3 -5 -5 -51 -4 -103 l1 -94 50 -27 c108 -56 160 -170
160 -350 0 -175 -55 -290 -164 -345 l-47 -24 -1 -99 0 -100 31 5 c61 8 129 35
187 74 151 100 229 268 228 493 0 190 -52 333 -162 441 -54 53 -146 110 -194
120 -10 2 -31 7 -48 10 -17 4 -34 3 -37 -1z"/>
<path d="M3747 3590 c-28 -4 -55 -14 -67 -26 -17 -16 -65 -146 -272 -724 -86
-240 -128 -362 -128 -370 0 -5 55 -8 123 -7 l122 2 51 155 c28 85 58 178 67
205 8 28 50 158 93 290 l77 240 42 -125 c23 -69 45 -132 48 -140 3 -8 50 -152
104 -320 l100 -305 121 -2 c67 -1 122 2 122 7 0 4 -7 27 -16 51 -9 24 -37 105
-64 179 -26 74 -100 281 -165 460 -64 179 -124 345 -132 370 -8 25 -18 49 -22
53 -10 10 -139 14 -204 7z"/>
<path d="M4583 3590 c-52 -5 -84 -25 -106 -65 -8 -14 -11 -177 -12 -542 l0
-523 116 0 117 0 0 565 c0 419 -3 565 -11 566 -7 0 -21 1 -32 2 -11 1 -43 0
-72 -3z"/>
<path d="M4894 3591 c-2 -2 -4 -47 -4 -100 l0 -96 74 -2 c125 -2 171 -42 170
-148 0 -73 -20 -107 -75 -129 -22 -9 -68 -16 -104 -16 l-65 0 -1 -30 c0 -16
-1 -46 -1 -65 0 -111 -2 -105 43 -105 74 0 129 -20 150 -54 21 -34 26 -68 33
-216 5 -107 10 -142 21 -160 4 -6 59 -10 132 -10 l125 0 -16 24 c-11 18 -17
60 -21 158 -10 248 -27 302 -109 345 l-30 15 30 15 c76 39 123 121 128 225 10
208 -83 324 -274 344 -71 7 -200 10 -206 5z"/>
<path d="M1769 3108 c-5 -11 -4 -201 1 -208 4 -6 26 -20 51 -33 35 -17 47 -31
58 -63 13 -37 12 -44 -5 -80 -30 -61 -91 -86 -213 -85 -79 0 -145 26 -181 69
-16 20 -30 45 -30 55 0 48 -12 53 -127 52 l-108 -1 3 -48 c11 -161 130 -282
307 -312 73 -12 232 -10 301 3 182 36 279 139 291 308 7 95 -14 169 -62 218
-44 45 -65 56 -184 96 -97 32 -100 33 -102 29z"/>
<path d="M3683 2735 c-2 -64 1 -75 15 -76 18 -1 150 -1 217 0 l40 1 0 75 1 75
-136 0 -136 0 -1 -75z"/>
<path d="M3683 2540 l-1 -78 137 2 136 1 0 77 0 77 -136 -1 -136 0 0 -78z"/>
<path d="M122 2297 c-49 -15 -92 -69 -92 -117 0 -54 35 -91 117 -126 91 -38
110 -51 120 -82 11 -34 11 -41 -6 -70 -35 -64 -137 -59 -176 8 -16 29 -25 34
-47 32 -59 -7 -15 -98 63 -132 79 -34 184 -4 224 62 22 37 24 107 6 142 -18
33 -72 68 -137 90 -55 18 -94 48 -94 72 0 29 20 52 54 64 40 13 78 5 101 -21
16 -17 20 -17 47 -3 l30 16 -23 25 c-42 45 -117 61 -187 40z"/>
<path d="M805 2288 c-26 -121 -35 -159 -39 -179 -2 -13 -18 -86 -34 -162 -16
-75 -26 -139 -22 -142 6 -4 61 3 67 9 2 1 5 18 7 37 3 19 15 81 27 139 12 58
22 111 22 118 0 6 2 12 4 12 2 0 38 -72 80 -160 68 -141 93 -183 93 -151 0 17
143 301 152 301 4 0 8 -9 8 -19 0 -10 9 -63 20 -117 22 -114 28 -145 29 -159
1 -5 17 -11 37 -11 36 -1 36 -1 31 35 -3 20 -8 46 -11 57 -2 12 -24 110 -47
218 -23 108 -46 196 -51 196 -4 0 -8 -4 -8 -9 0 -5 -39 -89 -86 -187 l-86
-177 -70 144 c-38 79 -78 163 -89 187 -22 48 -27 51 -34 20z"/>
<path d="M1863 2295 c-121 -37 -195 -130 -195 -245 0 -185 192 -301 389 -236
178 59 231 277 99 409 -70 71 -196 102 -293 72z m191 -75 c26 -12 56 -38 72
-62 25 -35 29 -51 29 -109 0 -60 -3 -71 -31 -106 -85 -105 -238 -117 -330 -25
-106 106 -57 275 94 322 40 13 117 4 166 -20z"/>
<path d="M2868 2296 c-248 -65 -273 -374 -39 -479 57 -25 168 -27 224 -4 33
14 37 20 37 51 l0 35 -50 -23 c-178 -83 -368 92 -283 259 26 49 46 69 101 93
55 24 135 22 191 -5 l41 -20 0 37 c0 35 -3 39 -37 51 -52 17 -130 19 -185 5z"/>
<path d="M3804 2291 c-113 -38 -184 -131 -184 -241 0 -141 115 -251 265 -253
79 -1 111 6 163 33 119 62 168 210 109 327 -61 120 -218 180 -353 134z m167
-56 c87 -29 141 -101 141 -186 -1 -56 -18 -92 -64 -135 -59 -55 -155 -74 -229
-46 -40 16 -100 73 -115 109 -66 158 96 315 267 258z"/>
<path d="M4391 2290 c-65 -22 -96 -44 -138 -99 -98 -128 -46 -302 112 -372
133 -60 317 0 381 123 24 46 25 161 1 209 -61 122 -221 185 -356 139z m192
-65 c48 -22 76 -51 98 -99 70 -155 -84 -311 -259 -260 -87 25 -144 94 -148
179 -7 147 166 248 309 180z"/>
<path d="M5190 2301 c-40 -10 -87 -42 -99 -68 -34 -74 2 -136 106 -179 91 -38
110 -51 121 -82 35 -107 -130 -164 -182 -63 -9 16 -12 32 -8 36 4 4 -2 5 -13
2 -66 -18 -64 -16 -54 -45 33 -91 156 -135 247 -88 38 20 82 71 84 99 0 12 2
29 3 37 2 26 -18 74 -39 94 -12 10 -46 30 -76 43 -102 45 -120 56 -126 79 -17
67 96 109 149 55 19 -18 22 -19 50 -5 l29 16 -28 29 c-40 42 -100 56 -164 40z"/>
<path d="M341 2281 c5 -9 45 -72 89 -141 l80 -124 0 -108 c0 -106 0 -108 23
-104 12 3 27 5 33 5 7 1 11 37 12 105 l1 103 81 129 c45 70 84 134 87 141 4
11 -4 13 -34 12 -39 -3 -41 -5 -104 -106 -51 -83 -66 -100 -74 -88 -136 213
-121 196 -164 193 -33 -1 -38 -4 -30 -17z"/>
<path d="M1339 2287 c-1 -6 -2 -117 -3 -244 -1 -152 2 -234 9 -236 5 -2 49 -3
96 -2 138 3 209 51 209 142 0 39 -35 93 -69 106 l-28 10 24 36 c20 29 24 45
20 79 -8 77 -62 111 -184 118 -53 3 -73 0 -74 -9z m171 -72 c27 -24 27 -86 0
-110 -10 -9 -39 -20 -62 -22 l-44 -5 2 78 c1 44 2 81 3 82 3 11 85 -8 101 -23z
m23 -204 c54 -21 61 -95 11 -127 -25 -17 -96 -27 -125 -19 -12 4 -15 20 -13
83 1 42 3 79 3 81 2 6 96 -7 124 -18z"/>
<path d="M2283 2052 l2 -247 105 -1 c58 0 111 2 118 4 6 2 12 15 12 28 0 26 1
26 -101 26 l-66 0 -1 207 c0 113 -1 211 -1 218 -1 6 -16 11 -35 11 l-35 0 2
-246z"/>
<path d="M2544 2053 l1 -248 33 -1 c31 0 32 1 33 40 1 48 0 439 0 446 -1 3
-16 7 -34 8 l-34 2 1 -247z"/>
<path d="M3320 2274 c0 -31 18 -40 77 -38 l53 2 2 -216 3 -217 30 0 30 0 3
216 2 217 48 0 c82 0 82 0 82 32 l0 29 -165 -1 c-163 -2 -165 -2 -165 -24z"/>
<path d="M4822 2051 l3 -246 100 -1 c121 0 135 3 132 27 -5 30 -13 33 -92 32
l-75 -1 0 219 0 218 -35 -1 -35 -1 2 -246z"/>
</g>
</svg>
