<?xml version="1.0" standalone="no"?>
<!DOCTYPE svg PUBLIC "-//W3C//DTD SVG 20010904//EN"
 "http://www.w3.org/TR/2001/REC-SVG-20010904/DTD/svg10.dtd">
<svg version="1.0" xmlns="http://www.w3.org/2000/svg"
 width="540.000000pt" height="540.000000pt" viewBox="0 0 540.000000 540.000000"
 preserveAspectRatio="xMidYMid meet">
<metadata>
Created by potrace 1.14, written by Peter Selinger 2001-2017
</metadata>
<g transform="translate(0.000000,540.000000) scale(0.100000,-0.100000)"
fill="#000000" stroke="none">
<path d="M1530 3603 c-149 -25 -243 -101 -282 -226 -50 -165 4 -296 151 -372
29 -14 167 -65 178 -65 2 0 3 49 3 110 l0 110 -37 19 c-60 31 -88 66 -87 111
3 87 58 124 184 125 72 0 92 -4 128 -25 24 -13 52 -39 63 -57 38 -62 62 -73
155 -73 l84 0 0 27 c0 52 -32 141 -69 189 -43 57 -134 108 -220 124 -52 10
-201 12 -251 3z"/>
<path d="M2612 3595 c-136 -31 -250 -111 -311 -219 -57 -101 -76 -185 -76
-346 0 -157 12 -224 60 -324 88 -187 303 -288 542 -256 235 31 377 158 408
363 l7 47 -110 0 -111 0 -31 -65 c-38 -79 -87 -119 -167 -136 -110 -22 -210 7
-277 82 -66 73 -81 127 -81 284 0 146 10 190 58 261 47 69 118 106 216 112
129 7 194 -23 248 -115 34 -58 69 -73 174 -73 l82 0 -7 41 c-26 165 -117 275
-272 330 -77 27 -261 35 -352 14z"/>
<path d="M345 3577 c-102 -38 -196 -116 -253 -209 -77 -124 -105 -354 -63
-518 28 -113 62 -179 127 -249 57 -62 135 -109 223 -135 85 -25 81 -29 81 84
l0 100 -47 24 c-62 31 -96 68 -127 137 -75 162 -50 404 52 512 15 16 48 40 75
53 l47 24 0 100 0 100 -27 -1 c-16 0 -55 -10 -88 -22z"/>
<path d="M640 3497 l0 -103 33 -12 c129 -47 206 -236 178 -437 -13 -88 -48
-175 -89 -218 -15 -16 -48 -40 -74 -53 l-48 -24 0 -101 0 -101 33 7 c261 52
417 265 417 570 0 274 -130 481 -348 554 -104 36 -102 37 -102 -82z"/>
<path d="M3686 3568 c-20 -18 -67 -139 -216 -555 -104 -293 -190 -538 -190
-543 0 -7 43 -10 122 -8 l123 3 67 205 c36 113 101 313 144 445 l77 240 147
-445 148 -445 122 -3 122 -3 -6 23 c-3 13 -93 266 -200 563 l-193 540 -121 3
c-113 2 -122 1 -146 -20z"/>
<path d="M4515 3568 c-55 -43 -55 -44 -55 -598 l0 -510 120 0 120 0 0 565 0
565 -79 0 c-65 0 -83 -4 -106 -22z"/>
<path d="M4890 3491 l0 -101 78 0 c92 0 135 -21 159 -78 18 -43 12 -118 -12
-156 -23 -34 -84 -56 -160 -56 l-65 0 0 -100 0 -100 53 -1 c135 -1 157 -32
167 -237 5 -81 13 -159 19 -174 l11 -28 125 0 125 0 -14 23 c-9 14 -17 81 -24
197 -14 224 -28 267 -106 307 l-30 15 30 15 c105 54 152 188 120 340 -21 103
-58 153 -143 195 -63 31 -73 33 -200 36 l-133 4 0 -101z"/>
<path d="M1766 3103 c-3 -4 -6 -52 -6 -107 l0 -101 53 -25 c44 -21 54 -32 66
-66 13 -37 12 -44 -5 -80 -28 -57 -71 -77 -173 -82 -49 -2 -105 1 -130 8 -59
16 -107 65 -123 124 l-12 47 -111 -3 -110 -3 3 -45 c9 -148 96 -253 249 -300
128 -39 326 -35 449 11 72 27 146 95 174 161 44 102 37 247 -15 319 -45 59
-93 83 -292 144 -6 2 -14 1 -17 -2z"/>
<path d="M3680 2735 l0 -75 140 0 140 0 0 75 0 75 -140 0 -140 0 0 -75z"/>
<path d="M3680 2540 l0 -81 138 3 137 3 0 75 0 75 -137 3 -138 3 0 -81z"/>
</g>
</svg>
